<svg xmlns="http://www.w3.org/2000/svg" viewBox="0 0 201 154" role="img" aria-label="Chosen Technology logo mark"><defs><linearGradient id="g" x1="0" y1="0" x2="1" y2="1"><stop offset="0" stop-color="#006cff"/><stop offset=".55" stop-color="#008cff"/><stop offset="1" stop-color="#00bfff"/></linearGradient></defs><g fill="url(#g)"><path d="M31 7h81l13 5 3 9-8 7H47L30 39 20 52l-6 16v20l6 17 11 14 16 11 19 7h46l14-5 5-8-3-9-8-5H47l-13-7-8-10-3-13 2-15 8-12 14-8h80l9-5 3-8-5-7-9-3H53z"/><path d="M55 56h70l12 5 4 8-4 8-10 4H61l-13 7-8 11-2 12 5 11 10 8 13 4h58l13-4 6-7-1-9-7-5H68l-10-4-5-7v-8l6-6 9-3h59l14-3 7-6-2-9-8-5H68z"/><path d="M80 74h52l11 4 5 7-2 9-8 5H89l-10 5-4 7 2 8 7 5 10 2h45l10-4 5-7-1-9-7-5H95l-7-3-3-6 2-6 7-4h47l9-4 4-7-2-8-8-4H95z"/></g></svg>